<svg xmlns="http://www.w3.org/2000/svg" xmlns:xlink="http://www.w3.org/1999/xlink" width="489" height="172" viewBox="0 0 489 172"><defs><clipPath id="b"><rect width="489" height="172"/></clipPath></defs><g id="a" clip-path="url(#b)"><g transform="translate(-7 -148)"><path d="M160.538-113.6q21.591,0,33.486,13t11.9,35.2V0H161.738V-59.8q0-7.2-4.3-11.3t-11.5-4.1q-7.4,0-11.6,4.1t-4.2,11.3V0H85.969V-59.8q0-7.2-4.3-11.3t-11.5-4.1q-7.4,0-11.6,4.1t-4.2,11.3V0H10V-112.8H54.382v15.2a35.188,35.188,0,0,1,13.095-11.6,41.026,41.026,0,0,1,19.492-4.4,43.187,43.187,0,0,1,21.591,5.3,39.72,39.72,0,0,1,14.994,14.9,50.73,50.73,0,0,1,15.794-14.5A40.722,40.722,0,0,1,160.538-113.6Zm108.955.8V0H225.112V-112.8Zm98.96-.8q19.392,0,30.288,13t10.9,35.2V0H365.455V-59.8q0-8-4.3-12.7t-11.5-4.7q-7.4,0-11.6,4.7t-4.2,12.7V0H289.486V-112.8h44.382v17.2a40.083,40.083,0,0,1,13.894-13Q356.458-113.6,368.453-113.6ZM499-37.8V0H482.207q-46.381,0-46.381-46.2V-75.8H421.832v-37h13.994V-140h44.382v27.2H498.6v37H480.208v30.4q0,4,1.9,5.8t6.3,1.8Z" transform="translate(-3 320)" fill="#fff"/><g transform="translate(217 148)" fill="none" stroke="#38b2ac" stroke-width="12"><circle cx="27.5" cy="27.5" r="27.5" stroke="none"/><circle cx="27.5" cy="27.5" r="21.5" fill="none"/></g></g></g></svg>