<svg width="50" height="50" viewBox="0 0 50 50" fill="none" xmlns="http://www.w3.org/2000/svg">
<path d="M37.3668 14.0001C39.6941 14.0001 41.4775 14.6154 42.717 15.8459C43.9564 17.0764 44.5762 18.77 44.5763 20.9265C44.5837 21.6792 44.5201 22.431 44.3866 23.1718L42.1858 35.6165H33.8L35.8111 24.2374C35.8399 24.0358 35.8527 23.8322 35.8495 23.6285C35.8495 22.8925 35.6282 22.3217 35.1855 21.916C34.7428 21.5103 34.1167 21.3073 33.3072 21.307C32.3966 21.307 31.6377 21.5544 31.0306 22.0491C30.4235 22.5438 30.0314 23.2225 29.8543 24.0852L27.8047 35.6165H19.4192L21.4303 24.2374C21.4591 24.0358 21.4719 23.8322 21.4687 23.6285C21.4687 22.8925 21.2474 22.3217 20.8047 21.916C20.362 21.5103 19.7359 21.3073 18.9264 21.307C17.9905 21.307 17.2126 21.5671 16.5929 22.0872C15.9731 22.6074 15.5873 23.3242 15.4356 24.2376V24.0474L13.4237 35.6165H5L8.75648 14.1523H17.1802L16.6869 17.0827C17.47 16.1503 18.4393 15.3919 19.5328 14.8563C20.6711 14.2854 21.9612 14 23.4031 14C24.9462 14 26.2553 14.3362 27.3304 15.0085C28.4054 15.6808 29.1833 16.6386 29.6639 17.8818C30.6422 16.7467 31.8187 15.7989 33.1359 15.0846C34.4313 14.3699 35.8873 13.9967 37.3668 14.0001Z" fill="#4FD1C5"/>
</svg>
