<svg xmlns="http://www.w3.org/2000/svg" xmlns:xlink="http://www.w3.org/1999/xlink" width="500" height="500" viewBox="0 0 500 500"><defs><clipPath id="b"><rect width="500" height="500"/></clipPath></defs><g id="a" clip-path="url(#b)"><circle cx="221.5" cy="221.5" r="221.5" transform="translate(29 29)" fill="#81e6d9"/><path d="M481.815,24.022,380.257.586A23.588,23.588,0,0,0,353.4,14.159L306.53,123.53a23.377,23.377,0,0,0,6.738,27.343l59.177,48.435a361.911,361.911,0,0,1-173.04,173.04L150.97,313.17a23.412,23.412,0,0,0-27.343-6.738L14.257,353.305A23.716,23.716,0,0,0,.586,380.257L24.022,481.815a23.429,23.429,0,0,0,22.851,18.163c250.087,0,453.106-202.628,453.106-453.106A23.408,23.408,0,0,0,481.815,24.022Z" transform="translate(0.021 0.021)" fill="#38b2ac"/></g></svg>