<svg id="svg" version="1.1" xmlns="http://www.w3.org/2000/svg" xmlns:xlink="http://www.w3.org/1999/xlink" width="400" height="162.60162601626016" viewBox="0, 0, 400,162.60162601626016"><g id="svgg"><path id="path0" d="M34.647 1.916 C 5.068 4.724,-9.636 40.827,14.094 52.379 C 16.021 53.317,17.544 53.867,19.012 54.152 C 20.181 54.380,21.532 54.697,22.014 54.858 C 22.596 55.052,24.880 55.138,28.830 55.115 L 34.770 55.080 34.611 55.745 C 34.148 57.683,32.403 60.759,29.480 64.790 C 27.004 68.205,25.266 75.208,25.266 81.764 C 25.266 83.899,25.169 84.830,24.908 85.203 C 22.470 88.684,21.887 94.451,23.627 97.885 C 25.246 101.079,29.854 105.957,32.554 107.334 C 37.710 109.965,43.931 109.215,45.687 105.751 C 49.590 98.050,48.299 91.240,41.964 86.113 C 40.427 84.870,41.334 82.796,44.513 80.285 C 45.734 79.321,46.796 78.367,46.873 78.165 C 47.324 76.989,53.578 78.601,60.109 81.576 C 61.652 82.279,63.252 82.984,63.665 83.143 C 65.105 83.696,71.242 87.018,72.520 87.936 C 74.137 89.098,74.298 89.407,74.291 91.353 C 74.279 94.779,71.929 97.363,65.068 101.497 C 54.907 107.619,53.380 109.873,53.695 118.285 C 54.078 128.498,49.060 135.565,38.649 139.477 C 35.778 140.556,32.715 141.524,31.593 141.707 L 30.541 141.879 30.467 139.920 L 30.394 137.961 28.768 137.884 C 27.874 137.842,25.397 137.976,23.265 138.183 C 21.132 138.390,18.487 138.629,17.386 138.714 C 9.983 139.289,6.254 139.781,6.254 140.183 C 6.254 141.951,17.274 148.314,25.626 151.369 C 28.584 152.450,28.693 152.421,28.898 150.506 C 28.992 149.631,29.152 148.780,29.255 148.615 C 29.469 148.267,33.196 148.824,35.062 149.483 C 35.655 149.692,37.043 150.087,38.145 150.361 C 39.248 150.635,40.375 150.960,40.650 151.083 C 40.926 151.206,41.432 151.366,41.776 151.439 C 42.120 151.511,43.640 151.869,45.153 152.233 C 48.672 153.080,54.348 152.782,62.289 151.333 C 74.482 149.108,76.798 149.286,76.798 152.449 C 76.798 153.666,76.419 153.835,73.671 153.845 C 70.634 153.857,66.888 154.983,66.313 156.058 C 65.383 157.796,66.675 160.561,68.269 160.244 C 68.626 160.173,69.875 159.991,71.044 159.841 C 73.578 159.514,77.329 158.723,78.549 158.258 C 81.511 157.128,81.362 157.584,80.586 152.026 C 80.272 149.778,80.219 148.769,80.408 148.624 C 80.825 148.304,84.937 146.042,87.459 144.746 C 90.368 143.251,93.563 140.611,98.835 135.350 C 106.445 127.753,108.679 124.295,114.092 111.729 L 116.448 106.259 118.367 106.388 C 121.953 106.628,125.007 108.902,127.236 112.991 C 130.517 119.010,130.406 123.517,126.655 136.460 C 123.530 147.242,125.801 152.952,133.036 152.503 C 138.441 152.168,140.088 151.484,140.088 149.575 C 140.088 146.831,139.073 146.191,135.408 146.623 C 129.243 147.350,128.135 145.558,130.051 137.961 C 130.967 134.327,131.348 132.964,131.587 132.458 C 132.909 129.658,134.574 121.491,134.580 117.775 C 134.590 111.491,127.049 102.216,118.526 98.028 C 116.881 97.220,116.569 96.964,116.373 96.259 C 116.247 95.806,115.804 94.590,115.390 93.558 C 114.975 92.527,114.214 90.613,113.697 89.306 C 111.593 83.977,108.822 80.005,104.524 76.159 C 102.571 74.411,100.660 71.783,97.442 66.417 C 96.781 65.316,96.039 64.190,95.791 63.915 C 92.240 59.967,93.320 53.416,97.733 52.133 C 101.577 51.016,105.110 53.269,107.783 58.540 C 110.696 64.287,111.996 65.463,116.073 66.041 C 117.046 66.179,118.422 66.586,119.131 66.946 C 124.291 69.560,133.333 63.497,133.333 57.421 C 133.333 53.058,131.421 49.945,126.204 45.820 C 123.829 43.942,120.075 40.268,120.075 39.823 C 120.075 39.624,120.939 38.040,121.996 36.303 C 127.870 26.646,128.404 22.035,124.431 15.257 C 121.382 10.053,113.152 7.870,103.127 9.606 C 100.539 10.054,99.158 10.114,98.956 9.787 C 97.806 7.926,92.024 6.130,87.179 6.130 C 82.122 6.129,74.708 8.378,73.005 10.430 C 72.856 10.610,72.634 10.757,72.512 10.757 C 72.050 10.757,67.281 14.841,65.879 16.438 C 62.061 20.786,59.702 24.201,57.541 28.507 C 54.440 34.687,52.305 33.699,50.313 25.163 C 50.025 23.927,49.517 22.534,49.174 22.036 C 47.654 19.832,46.464 16.316,47.013 15.654 C 48.026 14.434,50.221 15.748,51.325 18.234 C 53.235 22.537,53.842 23.376,55.337 23.779 C 56.871 24.192,57.068 23.867,56.761 21.423 C 56.146 16.521,53.212 13.642,46.029 10.895 C 44.722 10.396,43.427 9.882,43.152 9.753 C 42.877 9.625,42.065 9.295,41.347 9.020 C 39.711 8.392,37.273 7.028,37.273 6.739 C 37.273 6.619,37.470 6.109,37.710 5.606 L 38.146 4.690 42.775 4.827 C 45.824 4.917,47.917 5.100,48.906 5.363 C 53.355 6.550,53.940 6.865,54.590 8.425 C 54.809 8.951,55.303 10.153,55.686 11.097 C 56.583 13.304,57.072 13.565,58.718 12.717 C 62.271 10.886,57.479 4.740,51.227 3.110 C 47.196 2.059,39.201 1.483,34.647 1.916 M90.125 9.470 C 93.015 10.890,93.258 11.726,91.164 13.053 C 87.608 15.307,86.800 15.776,84.553 16.884 C 80.570 18.850,80.311 18.771,80.304 15.581 C 80.301 14.263,80.221 13.984,79.778 13.747 C 79.127 13.399,79.287 13.118,78.148 16.608 C 76.740 20.922,75.656 22.721,72.337 26.252 C 70.778 27.911,69.393 29.268,69.260 29.268 C 69.112 29.268,69.044 27.822,69.086 25.530 C 69.124 23.474,69.068 21.705,68.962 21.599 C 68.506 21.143,67.904 22.009,67.613 23.540 C 66.374 30.055,65.364 31.814,62.100 33.140 C 59.730 34.103,59.441 34.038,59.656 32.583 C 60.397 27.571,65.530 20.318,71.723 15.529 C 76.012 12.213,79.055 10.542,82.699 9.500 C 83.618 9.237,84.439 8.952,84.524 8.867 C 84.925 8.462,88.958 8.897,90.125 9.470 M34.999 10.870 C 39.967 13.388,41.190 18.369,38.781 26.266 C 36.758 32.896,36.656 33.783,37.641 36.206 C 42.311 47.700,38.003 52.779,23.580 52.782 C 18.030 52.783,10.720 49.377,13.386 48.032 C 13.990 47.727,15.772 47.627,22.639 47.510 C 33.031 47.334,34.290 47.013,34.260 44.556 C 34.240 42.855,32.333 39.412,30.919 38.522 C 28.727 37.142,21.569 36.997,13.634 38.171 C 12.258 38.375,9.669 38.566,7.880 38.595 L 4.628 38.649 4.552 37.744 C 4.471 36.772,4.809 36.534,6.276 36.526 C 6.726 36.524,7.013 36.328,7.214 35.886 C 7.860 34.469,7.509 34.021,5.754 34.021 C 4.305 34.021,4.003 33.826,4.003 32.890 L 4.003 32.061 12.195 31.958 C 26.554 31.775,31.520 29.894,31.520 24.636 C 31.520 23.336,30.793 20.513,30.458 20.513 C 29.928 20.513,28.294 19.152,28.154 18.594 C 27.886 17.526,29.630 16.260,31.370 16.260 C 32.318 16.260,32.373 16.214,32.616 15.197 L 32.780 14.509 31.183 14.509 C 28.077 14.509,25.213 16.487,20.936 21.585 C 16.123 27.321,13.579 29.180,10.163 29.454 C 8.247 29.608,8.256 29.625,9.292 27.788 C 15.908 16.040,28.652 7.654,34.999 10.870 M113.071 12.636 C 123.464 14.279,127.005 23.917,120.693 33.384 C 118.364 36.876,116.988 38.048,113.790 39.264 C 112.051 39.924,111.858 39.912,110.681 39.061 C 108.886 37.763,106.224 36.535,102.195 35.145 C 97.335 33.469,97.080 33.233,99.312 32.467 C 103.394 31.065,108.786 30.943,111.332 32.195 C 115.578 34.281,116.073 34.382,116.073 33.158 C 116.073 32.084,115.207 31.364,112.695 30.347 C 110.280 29.369,110.243 29.338,110.422 28.438 C 110.852 26.289,112.824 25.248,116.930 25.001 C 119.493 24.848,119.700 24.795,120.245 24.162 C 121.406 22.812,121.109 22.514,118.605 22.514 C 115.777 22.514,115.704 22.433,116.337 20.021 C 117.559 15.367,115.837 16.007,113.561 21.053 C 113.396 21.419,112.740 22.057,112.103 22.471 C 110.546 23.482,108.052 25.766,107.302 26.869 C 105.127 30.061,104.724 25.262,106.711 19.846 C 108.008 16.314,109.068 13.068,109.068 12.633 C 109.068 12.148,109.994 12.149,113.071 12.636 M106.110 14.634 C 106.060 15.543,105.589 17.467,104.916 19.512 C 104.305 21.370,103.638 23.508,103.434 24.265 C 102.492 27.753,98.981 30.246,93.709 31.169 L 92.733 31.339 92.901 30.241 C 93.168 28.494,94.453 26.130,95.701 25.087 L 96.811 24.159 96.811 21.133 C 96.811 17.349,96.565 16.817,95.328 17.922 C 94.423 18.730,94.088 19.901,94.070 22.318 C 94.061 23.482,93.966 23.797,93.561 24.014 C 92.342 24.666,90.056 28.812,90.056 30.371 C 90.056 31.208,86.846 31.545,84.259 30.977 C 82.517 30.596,82.599 30.727,82.507 28.181 C 82.418 25.732,82.313 25.537,81.404 26.133 C 80.687 26.603,80.395 27.262,79.974 29.366 C 79.636 31.057,79.781 30.968,76.205 31.666 C 73.302 32.233,73.014 31.700,74.682 28.853 C 78.228 22.802,97.249 12.802,104.690 13.078 L 106.191 13.133 106.110 14.634 M27.101 23.081 C 28.496 25.838,26.374 28.940,24.564 26.789 C 24.193 26.349,23.637 25.971,23.327 25.949 C 21.992 25.855,23.249 22.681,24.891 22.002 C 26.027 21.532,26.413 21.721,27.101 23.081 M89.060 35.238 C 90.783 35.516,93.300 36.032,94.654 36.384 C 96.008 36.735,97.324 37.023,97.580 37.023 C 98.099 37.023,102.882 38.628,105.191 39.577 C 106.016 39.916,107.226 40.390,107.880 40.630 C 109.204 41.117,109.321 41.504,108.809 43.720 C 107.913 47.608,102.289 50.260,94.909 50.277 C 91.989 50.283,89.325 48.767,84.415 44.301 C 77.875 38.352,74.667 36.574,72.180 37.520 C 70.738 38.068,71.045 39.592,72.742 40.309 C 76.245 41.788,78.895 43.633,83.726 47.957 C 90.394 53.924,94.029 61.899,92.060 66.238 C 91.318 67.873,86.661 72.500,83.961 74.284 C 82.704 75.115,81.017 76.274,80.212 76.859 C 75.792 80.072,74.660 80.536,70.794 80.721 C 61.742 81.154,45.532 69.887,44.860 62.695 L 44.714 61.129 46.310 59.935 C 55.094 53.361,60.064 46.011,60.736 38.602 L 60.913 36.648 62.664 36.319 C 63.627 36.137,64.818 35.873,65.311 35.730 C 69.623 34.480,82.690 34.209,89.060 35.238 M56.102 35.708 C 57.754 36.481,57.786 36.515,57.786 37.462 C 57.786 38.864,57.248 39.515,56.488 39.034 C 55.390 38.339,51.679 36.523,51.356 36.523 C 50.942 36.523,50.934 35.473,51.345 35.051 C 51.875 34.505,54.225 34.830,56.102 35.708 M53.175 38.919 C 54.936 39.810,56.216 41.354,56.631 43.089 C 56.922 44.308,55.265 44.060,52.865 42.526 C 51.788 41.838,50.654 41.166,50.344 41.032 C 49.984 40.876,49.781 40.571,49.781 40.188 C 49.781 39.857,49.707 39.219,49.617 38.769 L 49.454 37.950 50.616 38.081 C 51.255 38.153,52.406 38.530,53.175 38.919 M155.514 39.441 C 155.422 39.533,155.347 39.864,155.347 40.177 C 155.347 40.490,155.235 40.816,155.097 40.901 C 154.959 40.986,154.847 41.323,154.847 41.651 C 154.847 41.979,154.734 42.316,154.597 42.402 C 154.459 42.487,154.346 42.937,154.346 43.402 C 154.346 43.867,154.234 44.318,154.096 44.403 C 153.959 44.488,153.846 44.825,153.846 45.153 C 153.846 45.481,153.734 45.819,153.596 45.904 C 153.458 45.989,153.346 46.326,153.346 46.654 C 153.346 46.982,153.233 47.320,153.096 47.405 C 152.958 47.490,152.846 47.940,152.846 48.405 C 152.846 48.871,152.733 49.321,152.595 49.406 C 152.458 49.491,152.345 49.829,152.345 50.156 C 152.345 50.484,152.233 50.822,152.095 50.907 C 151.957 50.992,151.845 51.330,151.845 51.657 C 151.845 51.985,151.732 52.323,151.595 52.408 C 151.457 52.493,151.345 52.943,151.345 53.408 C 151.345 53.874,151.232 54.324,151.094 54.409 C 150.957 54.494,150.844 54.832,150.844 55.159 C 150.844 55.487,150.732 55.825,150.594 55.910 C 150.457 55.995,150.344 56.333,150.344 56.660 C 150.344 56.988,150.231 57.326,150.094 57.411 C 149.956 57.496,149.844 57.756,149.844 57.988 C 149.843 58.381,150.737 58.406,162.263 58.336 C 170.729 58.284,174.766 58.343,174.946 58.523 C 175.091 58.668,175.912 58.787,176.771 58.787 C 177.629 58.787,178.402 58.899,178.487 59.037 C 178.572 59.174,178.861 59.287,179.130 59.287 C 180.123 59.287,181.529 60.426,182.359 61.905 C 183.389 63.739,182.997 65.370,180.077 71.392 C 179.684 72.203,179.362 73.007,179.362 73.180 C 179.362 73.354,179.024 74.137,178.612 74.922 C 178.199 75.706,177.861 76.494,177.861 76.673 C 177.861 76.851,177.523 77.639,177.111 78.424 C 176.698 79.209,176.360 79.997,176.360 80.175 C 176.360 80.354,176.023 81.142,175.610 81.926 C 175.197 82.711,174.859 83.499,174.859 83.677 C 174.859 83.856,174.522 84.644,174.109 85.428 C 173.696 86.213,173.358 87.001,173.358 87.179 C 173.358 87.358,173.021 88.146,172.608 88.931 C 172.195 89.715,171.857 90.503,171.857 90.682 C 171.857 90.860,171.520 91.648,171.107 92.433 C 170.694 93.217,170.356 94.005,170.356 94.184 C 170.356 94.362,170.019 95.150,169.606 95.935 C 169.193 96.720,168.856 97.508,168.856 97.686 C 168.856 97.864,168.518 98.652,168.105 99.437 C 167.692 100.222,167.355 101.010,167.355 101.188 C 167.355 101.367,167.017 102.155,166.604 102.939 C 166.191 103.724,165.854 104.520,165.854 104.708 C 165.854 104.896,165.629 105.451,165.353 105.941 C 165.078 106.431,164.853 106.986,164.853 107.174 C 164.853 107.362,164.515 108.158,164.103 108.943 C 163.690 109.728,163.352 110.583,163.352 110.845 C 163.352 111.106,163.240 111.320,163.102 111.320 C 162.964 111.320,162.852 111.485,162.852 111.687 C 162.852 111.889,162.627 112.456,162.351 112.946 C 162.076 113.436,161.851 114.058,161.851 114.329 C 161.851 114.600,161.739 114.822,161.601 114.822 C 161.463 114.822,161.351 115.047,161.351 115.322 C 161.351 115.597,161.238 115.822,161.101 115.822 C 160.963 115.822,160.851 116.041,160.851 116.308 C 160.851 116.575,160.738 116.863,160.600 116.948 C 160.463 117.033,160.350 117.377,160.350 117.713 C 160.350 118.049,160.238 118.324,160.100 118.324 C 159.962 118.324,159.850 118.549,159.850 118.824 C 159.850 119.099,159.737 119.325,159.600 119.325 C 159.462 119.325,159.350 119.543,159.350 119.810 C 159.350 120.077,159.237 120.365,159.099 120.450 C 158.962 120.535,158.849 120.870,158.849 121.195 C 158.849 121.519,158.716 121.829,158.554 121.883 C 158.392 121.937,158.327 122.160,158.411 122.378 C 158.593 122.851,163.941 123.041,164.223 122.584 C 164.329 122.412,168.892 122.326,177.911 122.326 C 192.735 122.326,192.091 122.392,192.112 120.888 C 192.116 120.578,192.233 120.325,192.370 120.325 C 192.508 120.325,192.620 120.107,192.620 119.840 C 192.620 119.573,192.733 119.285,192.871 119.199 C 193.008 119.114,193.121 118.770,193.121 118.434 C 193.121 118.098,193.233 117.824,193.371 117.824 C 193.508 117.824,193.621 117.602,193.621 117.331 C 193.621 117.060,193.846 116.437,194.121 115.947 C 194.396 115.458,194.622 114.895,194.622 114.697 C 194.622 114.499,194.847 113.936,195.122 113.446 C 195.397 112.956,195.622 112.340,195.622 112.077 C 195.622 111.814,195.735 111.530,195.872 111.445 C 196.010 111.360,196.123 111.075,196.123 110.812 C 196.123 110.549,196.348 109.933,196.623 109.443 C 196.898 108.953,197.123 108.391,197.123 108.193 C 197.123 107.995,197.348 107.432,197.624 106.942 C 197.899 106.452,198.124 105.836,198.124 105.573 C 198.124 105.310,198.236 105.026,198.374 104.941 C 198.512 104.856,198.624 104.571,198.624 104.308 C 198.624 104.045,198.849 103.429,199.124 102.939 C 199.400 102.449,199.625 101.887,199.625 101.689 C 199.625 101.491,199.850 100.928,200.125 100.438 C 200.400 99.948,200.625 99.332,200.625 99.069 C 200.625 98.806,200.738 98.522,200.876 98.437 C 201.013 98.351,201.126 98.067,201.126 97.804 C 201.126 97.541,201.351 96.925,201.626 96.435 C 201.901 95.945,202.126 95.382,202.126 95.184 C 202.126 94.986,202.351 94.424,202.627 93.934 C 202.902 93.444,203.127 92.828,203.127 92.565 C 203.127 92.302,203.240 92.017,203.377 91.932 C 203.515 91.847,203.627 91.563,203.627 91.300 C 203.627 91.037,203.852 90.421,204.128 89.931 C 204.403 89.441,204.628 88.878,204.628 88.680 C 204.628 88.482,204.853 87.920,205.128 87.430 C 205.403 86.940,205.629 86.324,205.629 86.061 C 205.629 85.798,205.741 85.513,205.879 85.428 C 206.016 85.343,206.129 85.059,206.129 84.796 C 206.129 84.533,206.354 83.917,206.629 83.427 C 206.904 82.937,207.129 82.374,207.129 82.176 C 207.129 81.978,207.355 81.415,207.630 80.926 C 207.905 80.436,208.130 79.820,208.130 79.557 C 208.130 79.294,208.243 79.009,208.380 78.924 C 208.518 78.839,208.630 78.495,208.630 78.159 C 208.630 77.823,208.743 77.548,208.881 77.548 C 209.018 77.548,209.131 77.330,209.131 77.063 C 209.131 76.796,209.243 76.508,209.381 76.423 C 209.518 76.338,209.631 75.993,209.631 75.658 C 209.631 75.322,209.744 75.047,209.881 75.047 C 210.019 75.047,210.131 74.828,210.131 74.561 C 210.131 74.294,210.244 74.006,210.381 73.921 C 210.519 73.836,210.632 73.492,210.632 73.156 C 210.632 72.820,210.744 72.545,210.882 72.545 C 211.019 72.545,211.132 72.208,211.132 71.795 C 211.132 71.382,211.245 71.044,211.382 71.044 C 211.520 71.044,211.632 70.819,211.632 70.544 C 211.632 70.269,211.745 70.044,211.882 70.044 C 212.020 70.044,212.133 69.817,212.133 69.540 C 212.133 69.263,212.232 68.841,212.354 68.602 C 212.475 68.363,212.713 67.830,212.883 67.417 C 213.053 67.004,213.291 66.471,213.413 66.232 C 213.534 65.993,213.634 65.631,213.634 65.427 C 213.634 65.223,213.859 64.655,214.134 64.165 C 214.409 63.675,214.634 63.070,214.634 62.820 C 214.634 62.571,214.859 62.163,215.134 61.914 C 215.410 61.665,215.635 61.311,215.635 61.128 C 215.635 60.737,217.381 59.563,218.637 59.110 C 219.331 58.860,230.683 58.793,273.559 58.791 L 327.607 58.787 328.925 59.444 C 329.685 59.822,330.334 60.341,330.459 60.670 C 330.578 60.983,330.792 61.311,330.933 61.399 C 331.075 61.486,331.536 62.281,331.957 63.164 C 332.379 64.048,332.825 64.834,332.949 64.910 C 333.073 64.986,333.752 66.227,334.459 67.667 C 335.166 69.107,335.843 70.347,335.964 70.421 C 336.084 70.496,336.646 71.508,337.211 72.670 C 337.776 73.833,338.337 74.845,338.458 74.920 C 338.579 74.994,339.256 76.233,339.962 77.674 C 340.669 79.114,341.346 80.353,341.467 80.427 C 341.588 80.502,342.151 81.489,342.720 82.621 C 343.866 84.904,346.456 89.747,346.835 90.316 C 346.969 90.517,347.628 91.751,348.299 93.058 C 348.971 94.365,349.656 95.604,349.822 95.810 C 349.987 96.016,350.500 96.947,350.961 97.878 L 351.799 99.571 351.216 100.192 L 350.632 100.813 338.957 100.813 C 328.139 100.813,327.256 100.845,326.931 101.251 C 326.330 101.999,325.954 102.787,325.954 103.296 C 325.954 103.565,325.841 103.855,325.704 103.940 C 325.566 104.025,325.453 104.363,325.453 104.690 C 325.453 105.018,325.341 105.356,325.203 105.441 C 325.066 105.526,324.953 105.811,324.953 106.073 C 324.953 106.336,324.728 106.952,324.453 107.442 C 324.178 107.932,323.952 108.548,323.952 108.811 C 323.952 109.074,323.840 109.358,323.702 109.443 C 323.565 109.528,323.452 109.866,323.452 110.194 C 323.452 110.522,323.340 110.859,323.202 110.944 C 323.064 111.029,322.952 111.374,322.952 111.710 C 322.952 112.045,322.839 112.320,322.702 112.320 C 322.564 112.320,322.452 112.658,322.452 113.071 C 322.452 113.483,322.339 113.821,322.201 113.821 C 322.064 113.821,321.951 114.159,321.951 114.572 C 321.951 114.984,321.839 115.322,321.701 115.322 C 321.563 115.322,321.451 115.541,321.451 115.808 C 321.451 116.075,321.338 116.363,321.201 116.448 C 321.063 116.533,320.951 116.877,320.951 117.213 C 320.951 117.549,320.838 117.824,320.700 117.824 C 320.563 117.824,320.450 118.161,320.450 118.574 C 320.450 118.987,320.338 119.325,320.200 119.325 C 320.063 119.325,319.950 119.662,319.950 120.075 C 319.950 120.488,319.837 120.826,319.700 120.826 C 319.562 120.826,319.450 121.100,319.450 121.436 C 319.450 121.772,319.335 122.117,319.195 122.204 C 319.056 122.290,319.006 122.466,319.085 122.594 C 319.297 122.937,397.170 122.906,397.382 122.563 C 397.542 122.304,394.391 115.691,393.989 115.443 C 393.877 115.374,393.092 113.912,392.245 112.195 C 391.398 110.478,390.610 109.015,390.495 108.944 C 390.380 108.872,389.859 107.943,389.338 106.877 C 388.817 105.812,388.329 104.884,388.254 104.816 C 388.102 104.676,387.613 103.770,385.421 99.562 C 384.596 97.980,383.780 96.517,383.608 96.310 C 383.435 96.104,382.601 94.584,381.754 92.933 C 378.599 86.783,376.948 83.674,376.640 83.306 C 376.465 83.097,375.672 81.604,374.878 79.987 C 374.083 78.369,373.340 76.989,373.228 76.920 C 373.115 76.850,372.329 75.388,371.482 73.671 C 370.635 71.954,369.847 70.491,369.731 70.419 C 369.615 70.347,368.827 68.884,367.980 67.167 C 367.133 65.450,366.345 63.987,366.229 63.915 C 366.113 63.843,365.325 62.380,364.478 60.663 C 363.631 58.946,362.843 57.483,362.728 57.411 C 362.612 57.340,362.090 56.410,361.568 55.345 C 361.045 54.280,360.529 53.371,360.421 53.325 C 360.313 53.279,360.225 53.026,360.225 52.762 C 360.225 52.498,360.113 52.283,359.975 52.283 C 359.837 52.283,359.725 52.058,359.725 51.782 C 359.725 51.507,359.612 51.282,359.475 51.282 C 359.337 51.282,359.225 51.057,359.225 50.782 C 359.225 50.507,359.112 50.281,358.974 50.281 C 358.837 50.281,358.724 50.081,358.724 49.836 C 358.724 49.592,358.499 49.229,358.224 49.031 C 357.949 48.832,357.724 48.495,357.724 48.280 C 357.724 48.066,357.498 47.728,357.223 47.530 C 356.948 47.331,356.723 47.018,356.723 46.834 C 356.723 46.390,352.525 42.276,352.072 42.276 C 351.878 42.276,351.720 42.164,351.720 42.026 C 351.720 41.889,351.495 41.776,351.220 41.776 C 350.944 41.776,350.719 41.664,350.719 41.526 C 350.719 41.388,350.494 41.276,350.219 41.276 C 349.944 41.276,349.719 41.163,349.719 41.026 C 349.719 40.888,349.500 40.775,349.233 40.775 C 348.966 40.775,348.678 40.663,348.593 40.525 C 348.508 40.388,348.170 40.275,347.842 40.275 C 347.515 40.275,347.177 40.163,347.092 40.025 C 347.007 39.887,346.444 39.775,345.841 39.775 C 345.238 39.775,344.675 39.662,344.590 39.525 C 344.416 39.242,155.796 39.159,155.514 39.441 M23.533 40.276 C 25.275 40.760,26.334 43.802,25.165 44.960 C 24.380 45.738,20.367 44.825,19.668 43.710 C 17.887 40.869,19.740 39.223,23.533 40.276 M16.510 42.257 C 16.510 43.931,16.751 43.768,13.534 44.265 C 11.657 44.555,11.576 44.523,11.368 43.415 C 11.027 41.596,12.051 40.818,14.822 40.791 L 16.510 40.775 16.510 42.257 M29.206 42.024 C 30.433 42.772,30.390 44.116,29.126 44.533 C 28.003 44.904,27.947 44.839,27.815 43.022 C 27.693 41.326,27.862 41.204,29.206 42.024 M9.854 42.672 C 10.603 44.624,9.607 45.763,8.134 44.639 C 6.656 43.511,6.836 42.276,8.479 42.276 C 9.364 42.276,9.745 42.386,9.854 42.672 M117.524 42.464 C 117.474 42.567,117.133 43.299,116.767 44.090 C 116.284 45.132,115.964 45.528,115.605 45.528 C 114.831 45.528,113.727 46.617,112.870 48.226 C 111.586 50.635,110.102 51.779,109.565 50.776 C 108.802 49.349,109.932 46.542,112.309 43.965 L 113.865 42.276 115.740 42.276 C 116.771 42.276,117.574 42.361,117.524 42.464 M51.136 43.402 C 53.502 44.600,54.284 45.398,54.284 46.617 C 54.284 49.160,53.058 49.370,50.426 47.279 C 45.954 43.726,46.448 41.030,51.136 43.402 M47.128 46.216 C 47.585 47.087,49.423 48.854,50.407 49.370 C 51.873 50.138,51.869 50.132,51.512 51.117 C 51.064 52.357,50.710 52.407,48.973 51.481 C 46.448 50.135,45.528 48.750,45.528 46.293 C 45.528 45.245,46.591 45.194,47.128 46.216 M119.624 49.516 C 121.422 50.930,126.579 59.769,126.579 61.436 C 126.579 62.747,120.794 56.876,118.870 53.612 C 117.825 51.838,117.518 49.873,118.207 49.369 C 118.807 48.930,118.891 48.939,119.624 49.516 M44.060 50.286 C 45.746 50.755,48.030 53.010,48.030 54.207 C 48.030 54.954,45.981 55.041,45.131 54.331 C 44.054 53.430,42.777 51.495,42.777 50.763 C 42.777 49.943,42.797 49.935,44.060 50.286 M41.108 52.624 C 42.031 53.010,43.068 54.144,43.789 55.558 C 45.094 58.116,42.974 57.799,39.787 54.959 C 38.044 53.407,38.988 51.738,41.108 52.624 M115.555 54.597 C 115.677 54.906,116.302 55.666,116.945 56.285 C 118.367 57.654,118.824 58.478,118.824 59.669 L 118.824 60.576 118.185 59.816 C 117.833 59.398,116.904 58.666,116.121 58.189 C 113.836 56.799,112.809 54.034,114.578 54.034 C 115.130 54.034,115.394 54.186,115.555 54.597 M62.394 55.250 C 58.889 56.918,58.330 60.053,60.698 64.758 C 65.732 74.762,74.929 74.781,76.177 64.790 C 76.254 64.171,76.369 63.254,76.432 62.752 L 76.546 61.840 74.483 61.720 C 73.348 61.654,72.167 61.517,71.857 61.415 C 71.339 61.245,71.294 61.307,71.289 62.197 C 71.267 66.064,67.952 67.015,65.889 63.746 C 64.941 62.245,65.343 61.271,67.323 60.272 L 68.811 59.521 68.739 57.090 L 68.668 54.659 66.291 54.592 C 64.113 54.531,63.788 54.586,62.394 55.250 M40.287 59.352 C 40.556 59.521,40.904 60.053,41.059 60.536 C 41.528 61.994,44.279 67.522,45.718 69.898 C 47.574 72.962,47.276 74.098,43.873 76.924 C 41.690 78.736,40.025 80.368,40.025 80.695 C 40.025 82.508,37.269 83.547,32.452 83.550 L 28.505 83.552 28.238 82.864 C 27.273 80.387,28.076 75.896,30.775 68.668 C 33.721 60.778,37.167 57.404,40.287 59.352 M228.007 63.056 C 227.917 63.203,227.905 63.386,227.983 63.463 C 228.060 63.540,227.847 64.098,227.509 64.703 C 227.172 65.308,226.919 65.884,226.947 65.984 C 226.975 66.084,226.860 66.415,226.691 66.719 C 226.523 67.023,226.404 67.361,226.427 67.470 C 226.450 67.578,226.262 68.118,226.010 68.668 C 225.758 69.218,225.543 69.781,225.533 69.919 C 225.522 70.056,225.365 70.431,225.183 70.751 C 225.001 71.072,224.919 71.508,225.001 71.721 C 225.082 71.934,225.027 72.256,224.878 72.435 C 224.220 73.228,224.443 75.251,225.279 76.060 C 225.995 76.754,245.142 86.554,245.783 86.554 C 246.230 86.554,262.729 94.903,263.959 95.751 C 266.510 97.512,267.364 99.413,266.173 100.681 L 265.579 101.313 236.018 101.313 C 203.684 101.313,205.629 101.229,205.629 102.639 C 205.629 102.864,205.403 103.450,205.128 103.940 C 204.853 104.430,204.628 105.046,204.628 105.309 C 204.628 105.572,204.515 105.856,204.378 105.941 C 204.240 106.026,204.128 106.311,204.128 106.574 C 204.128 106.837,203.902 107.453,203.627 107.942 C 203.352 108.432,203.127 109.048,203.127 109.311 C 203.127 109.574,203.014 109.859,202.877 109.944 C 202.739 110.029,202.627 110.366,202.627 110.694 C 202.627 111.022,202.514 111.360,202.376 111.445 C 202.239 111.530,202.126 111.874,202.126 112.210 C 202.126 112.546,202.014 112.821,201.876 112.821 C 201.739 112.821,201.626 113.039,201.626 113.306 C 201.626 113.573,201.513 113.861,201.376 113.946 C 201.238 114.031,201.126 114.376,201.126 114.711 C 201.126 115.047,201.013 115.322,200.876 115.322 C 200.738 115.322,200.625 115.660,200.625 116.073 C 200.625 116.485,200.513 116.823,200.375 116.823 C 200.238 116.823,200.125 117.042,200.125 117.309 C 200.125 117.576,200.013 117.864,199.875 117.949 C 199.737 118.034,199.625 118.378,199.625 118.714 C 199.625 119.050,199.512 119.325,199.375 119.325 C 199.237 119.325,199.124 119.653,199.124 120.054 C 199.124 120.455,199.020 120.821,198.893 120.867 C 198.765 120.913,198.585 121.259,198.491 121.637 L 198.321 122.323 233.307 122.445 C 252.549 122.511,271.999 122.628,276.529 122.703 C 282.012 122.795,284.850 122.754,285.021 122.583 C 285.163 122.442,285.595 122.326,285.982 122.326 C 287.081 122.326,290.181 120.007,290.181 119.185 C 290.181 119.029,290.407 118.698,290.682 118.449 C 290.957 118.200,291.182 117.792,291.182 117.542 C 291.182 117.293,291.407 116.688,291.682 116.198 C 291.957 115.708,292.183 115.092,292.183 114.829 C 292.183 114.566,292.295 114.281,292.433 114.196 C 292.570 114.111,292.683 113.827,292.683 113.564 C 292.683 113.301,292.908 112.685,293.183 112.195 C 293.458 111.705,293.684 111.089,293.684 110.826 C 293.684 110.564,293.796 110.279,293.934 110.194 C 294.071 110.109,294.184 109.824,294.184 109.561 C 294.184 109.298,294.409 108.683,294.684 108.193 C 294.959 107.703,295.184 107.087,295.184 106.824 C 295.184 106.561,295.297 106.276,295.435 106.191 C 295.572 106.106,295.685 105.822,295.685 105.559 C 295.685 105.296,295.910 104.680,296.185 104.190 C 296.460 103.700,296.685 103.084,296.685 102.821 C 296.685 102.559,296.798 102.274,296.936 102.189 C 297.073 102.104,297.186 101.766,297.186 101.438 C 297.186 101.111,297.298 100.773,297.436 100.688 C 297.573 100.603,297.686 100.318,297.686 100.055 C 297.686 99.793,297.911 99.177,298.186 98.687 C 298.462 98.197,298.687 97.581,298.687 97.318 C 298.687 97.055,298.802 96.769,298.943 96.681 C 299.085 96.594,299.180 96.390,299.155 96.229 C 299.130 96.067,299.321 95.485,299.579 94.934 C 299.836 94.384,300.056 93.821,300.066 93.684 C 300.077 93.546,300.223 93.185,300.390 92.881 C 300.558 92.577,300.669 92.239,300.638 92.130 C 300.607 92.021,300.723 91.677,300.897 91.364 C 301.070 91.052,301.151 90.699,301.077 90.580 C 301.004 90.461,301.111 90.224,301.316 90.054 C 301.854 89.608,301.821 86.751,301.268 85.857 C 300.656 84.869,299.386 83.552,299.043 83.552 C 298.881 83.552,298.612 83.388,298.446 83.188 C 298.105 82.777,294.717 81.051,294.252 81.051 C 294.085 81.051,293.548 80.826,293.058 80.550 C 292.568 80.275,292.013 80.050,291.825 80.050 C 291.637 80.050,290.841 79.712,290.056 79.300 C 289.272 78.887,288.484 78.549,288.305 78.549 C 288.127 78.549,287.339 78.211,286.554 77.799 C 285.769 77.386,284.981 77.048,284.803 77.048 C 284.625 77.048,283.837 76.710,283.052 76.298 C 282.267 75.885,281.479 75.547,281.301 75.547 C 281.122 75.547,280.334 75.210,279.550 74.797 C 278.765 74.384,277.977 74.046,277.799 74.046 C 277.620 74.046,276.832 73.709,276.048 73.296 C 275.263 72.883,274.475 72.545,274.296 72.545 C 274.118 72.545,273.330 72.208,272.545 71.795 C 271.761 71.382,270.979 71.044,270.809 71.044 C 270.249 71.044,265.564 68.539,264.857 67.861 C 263.880 66.926,264.214 64.408,265.412 63.667 C 265.552 63.581,265.666 63.348,265.666 63.150 C 265.666 62.690,228.291 62.597,228.007 63.056 M300.988 63.089 C 300.823 63.255,300.688 63.590,300.688 63.834 C 300.688 64.078,300.463 64.647,300.189 65.097 C 299.914 65.548,299.689 66.115,299.688 66.357 C 299.688 66.600,299.584 66.994,299.458 67.233 C 298.904 68.279,298.186 70.069,298.186 70.402 C 298.186 70.601,298.074 70.834,297.936 70.919 C 297.799 71.004,297.686 71.289,297.686 71.552 C 297.686 71.815,297.461 72.431,297.186 72.921 C 296.911 73.410,296.685 74.026,296.685 74.289 C 296.685 74.552,296.573 74.837,296.435 74.922 C 296.298 75.007,296.185 75.329,296.185 75.637 C 296.185 75.945,296.052 76.331,295.889 76.494 C 295.525 76.858,295.336 76.725,298.230 78.143 C 299.561 78.795,300.785 79.491,300.950 79.689 C 301.115 79.888,301.387 80.050,301.555 80.050 C 301.724 80.050,302.065 80.275,302.314 80.550 C 302.563 80.826,302.895 81.051,303.051 81.051 C 305.144 81.051,307.666 88.404,306.186 90.188 C 306.012 90.398,305.943 90.641,306.032 90.730 C 306.120 90.819,306.015 91.164,305.797 91.496 C 305.579 91.829,305.462 92.162,305.536 92.236 C 305.611 92.311,305.389 92.877,305.044 93.495 C 304.699 94.113,304.474 94.677,304.545 94.747 C 304.615 94.817,304.537 95.114,304.370 95.405 C 304.204 95.696,304.065 96.055,304.062 96.202 C 304.057 96.440,303.779 97.166,302.870 99.312 C 302.724 99.656,302.595 100.050,302.583 100.188 C 302.572 100.325,302.426 100.676,302.259 100.968 C 302.093 101.259,302.014 101.556,302.085 101.626 C 302.156 101.697,301.983 102.165,301.701 102.667 C 301.419 103.169,301.188 103.795,301.188 104.058 C 301.188 104.321,301.076 104.605,300.938 104.690 C 300.801 104.775,300.688 105.060,300.688 105.323 C 300.688 105.586,300.463 106.202,300.188 106.692 C 299.912 107.182,299.687 107.798,299.687 108.060 C 299.687 108.323,299.575 108.608,299.437 108.693 C 299.300 108.778,299.187 109.063,299.187 109.325 C 299.187 109.588,298.962 110.204,298.687 110.694 C 298.412 111.184,298.186 111.800,298.186 112.063 C 298.186 112.326,298.074 112.610,297.936 112.695 C 297.799 112.780,297.686 113.065,297.686 113.328 C 297.686 113.591,297.461 114.207,297.186 114.697 C 296.911 115.187,296.685 115.803,296.685 116.065 C 296.685 116.328,296.573 116.613,296.435 116.698 C 296.298 116.783,296.185 117.052,296.185 117.296 C 296.185 118.035,295.023 120.088,294.028 121.107 C 293.513 121.635,293.145 122.122,293.212 122.189 C 293.394 122.371,313.400 122.384,313.694 122.203 C 313.833 122.117,313.946 121.779,313.946 121.451 C 313.946 121.123,314.059 120.785,314.196 120.700 C 314.334 120.615,314.447 120.271,314.447 119.935 C 314.447 119.599,314.559 119.325,314.697 119.325 C 314.834 119.325,314.947 118.987,314.947 118.574 C 314.947 118.161,315.059 117.824,315.197 117.824 C 315.335 117.824,315.447 117.605,315.447 117.338 C 315.447 117.071,315.560 116.783,315.697 116.698 C 315.835 116.613,315.947 116.269,315.947 115.933 C 315.947 115.597,316.060 115.322,316.198 115.322 C 316.335 115.322,316.448 114.984,316.448 114.572 C 316.448 114.159,316.560 113.821,316.698 113.821 C 316.836 113.821,316.948 113.483,316.948 113.071 C 316.948 112.658,317.061 112.320,317.198 112.320 C 317.336 112.320,317.448 112.045,317.448 111.710 C 317.448 111.374,317.561 111.029,317.699 110.944 C 317.836 110.859,317.949 110.571,317.949 110.304 C 317.949 110.037,318.061 109.819,318.199 109.819 C 318.336 109.819,318.449 109.544,318.449 109.208 C 318.449 108.872,318.562 108.528,318.699 108.443 C 318.837 108.358,318.949 108.020,318.949 107.692 C 318.949 107.365,319.062 107.027,319.199 106.942 C 319.337 106.857,319.450 106.572,319.450 106.309 C 319.450 106.046,319.675 105.431,319.950 104.941 C 320.225 104.451,320.450 103.835,320.450 103.572 C 320.450 103.309,320.563 103.024,320.700 102.939 C 320.838 102.854,320.951 102.517,320.951 102.189 C 320.951 101.861,321.063 101.523,321.201 101.438 C 321.338 101.353,321.451 101.016,321.451 100.688 C 321.451 100.360,321.563 100.022,321.701 99.937 C 321.839 99.852,321.951 99.568,321.951 99.305 C 321.951 99.042,322.176 98.426,322.452 97.936 C 322.727 97.446,322.952 96.830,322.952 96.568 C 322.952 96.305,323.064 96.020,323.202 95.935 C 323.340 95.850,323.452 95.512,323.452 95.184 C 323.452 94.857,323.565 94.519,323.702 94.434 C 323.840 94.349,323.952 94.064,323.952 93.801 C 323.952 93.539,324.178 92.923,324.453 92.433 C 324.728 91.943,324.953 91.327,324.953 91.064 C 324.953 90.801,325.066 90.517,325.203 90.432 C 325.341 90.346,325.453 90.009,325.453 89.681 C 325.453 89.353,325.566 89.016,325.704 88.931 C 325.841 88.846,325.954 88.508,325.954 88.180 C 325.954 87.852,326.066 87.515,326.204 87.430 C 326.341 87.345,326.454 87.060,326.454 86.797 C 326.454 86.534,326.679 85.918,326.954 85.428 C 327.230 84.938,327.455 84.323,327.455 84.060 C 327.455 83.797,327.567 83.512,327.705 83.427 C 327.842 83.342,327.955 83.004,327.955 82.677 C 327.955 82.349,328.068 82.011,328.205 81.926 C 328.343 81.841,328.455 81.557,328.455 81.294 C 328.455 81.031,328.680 80.415,328.956 79.925 C 329.231 79.435,329.456 78.819,329.456 78.556 C 329.456 78.293,329.568 78.009,329.706 77.924 C 329.844 77.839,329.956 77.501,329.956 77.173 C 329.956 76.846,330.069 76.508,330.206 76.423 C 330.344 76.338,330.457 76.000,330.457 75.672 C 330.457 75.345,330.569 75.007,330.707 74.922 C 330.844 74.837,330.957 74.499,330.957 74.171 C 330.957 73.844,331.069 73.506,331.207 73.421 C 331.345 73.336,331.457 72.717,331.457 72.045 C 331.457 71.373,331.345 70.754,331.207 70.669 C 331.069 70.584,330.957 70.090,330.957 69.571 C 330.957 67.078,327.623 63.290,325.430 63.290 C 325.046 63.290,324.663 63.177,324.578 63.039 C 324.339 62.652,301.377 62.701,300.988 63.089 M96.185 68.094 C 96.715 68.715,97.486 71.972,97.176 72.284 C 96.433 73.032,94.309 70.255,94.309 68.535 C 94.309 67.809,95.668 67.490,96.185 68.094 M93.986 72.486 C 95.504 74.733,95.648 75.667,94.509 75.895 C 93.562 76.084,93.406 75.952,92.198 73.936 C 91.094 72.094,91.039 71.362,91.995 71.241 C 92.996 71.115,93.105 71.183,93.986 72.486 M90.472 75.085 C 91.637 76.179,91.798 79.049,90.695 79.049 C 89.907 79.049,88.305 76.351,88.305 75.026 C 88.305 74.082,89.438 74.113,90.472 75.085 M101.958 77.057 C 103.683 77.893,105.720 81.426,105.481 83.170 C 105.151 85.577,102.676 88.361,99.194 90.244 L 97.227 91.307 92.124 91.307 L 87.021 91.307 87.193 91.870 C 87.455 92.722,87.741 92.983,88.606 93.156 C 91.334 93.701,94.258 97.304,91.980 97.314 C 90.174 97.322,90.134 97.374,90.002 99.897 C 89.808 103.605,88.950 104.565,85.832 104.565 C 80.539 104.565,79.422 101.286,82.564 94.974 C 84.257 91.574,84.313 91.257,83.370 90.446 C 82.203 89.442,82.690 88.758,86.254 86.389 C 87.943 85.267,90.756 83.127,92.505 81.634 C 98.500 76.517,99.671 75.950,101.958 77.057 M86.318 77.306 C 87.305 77.834,88.217 80.886,87.519 81.328 C 86.708 81.842,86.048 81.559,85.298 80.376 C 83.868 78.122,84.468 76.316,86.318 77.306 M83.022 81.845 C 84.028 83.824,83.947 84.303,82.609 84.303 C 81.720 84.303,81.611 84.221,81.101 83.170 C 79.523 79.924,81.391 78.635,83.022 81.845 M78.674 83.427 C 78.674 84.606,78.634 84.682,77.986 84.757 C 77.308 84.835,77.298 84.817,77.298 83.427 C 77.298 82.038,77.308 82.019,77.986 82.097 C 78.634 82.172,78.674 82.249,78.674 83.427 M31.019 87.008 C 31.019 87.281,30.669 87.629,30.144 87.880 C 29.662 88.109,29.268 88.407,29.268 88.542 C 29.268 89.110,26.635 90.807,25.752 90.807 C 25.172 90.807,26.561 87.683,27.322 87.275 C 27.789 87.025,29.542 86.653,30.582 86.584 C 30.849 86.566,31.019 86.731,31.019 87.008 M40.146 90.056 C 40.324 90.538,40.976 92.058,41.595 93.433 C 42.213 94.809,42.840 96.371,42.987 96.904 L 43.254 97.874 42.118 97.746 C 40.637 97.579,39.496 96.490,38.771 94.552 C 37.945 92.343,37.409 91.958,35.380 92.121 L 33.719 92.254 33.872 91.492 C 34.343 89.136,39.381 87.983,40.146 90.056 M33.021 96.406 C 36.059 98.155,38.524 101.478,38.524 103.827 L 38.524 104.816 37.461 104.814 C 35.145 104.810,32.389 101.607,30.792 97.066 C 30.115 95.137,30.578 94.999,33.021 96.406 M111.855 104.272 C 111.829 109.366,108.761 113.153,102.192 116.202 C 95.572 119.275,85.530 120.343,82.176 118.331 C 81.764 118.083,80.694 117.510,79.800 117.057 C 71.478 112.843,68.865 108.810,71.299 103.940 L 72.174 102.189 73.298 102.276 C 74.592 102.375,77.831 103.645,80.550 105.119 C 84.952 107.505,95.227 107.774,101.939 105.679 C 106.991 104.102,108.013 103.686,109.682 102.522 C 111.782 101.058,111.871 101.129,111.855 104.272 M62.740 111.781 C 62.629 113.703,62.605 113.763,61.611 114.661 C 61.053 115.165,60.457 115.914,60.287 116.325 C 60.016 116.980,59.852 117.073,58.975 117.073 L 57.972 117.073 58.136 116.010 C 58.678 112.498,60.459 109.819,62.252 109.819 C 62.846 109.819,62.852 109.844,62.740 111.781 M75.633 119.098 C 78.976 120.076,79.050 120.134,79.044 121.775 C 79.034 124.462,78.219 125.553,74.714 127.570 L 72.505 128.841 71.462 128.042 C 68.083 125.456,67.962 125.170,69.045 122.360 C 70.399 118.849,72.027 118.043,75.633 119.098 M63.251 123.656 C 68.969 129.084,73.458 131.912,78.174 133.059 C 78.862 133.226,79.819 133.457,80.300 133.573 C 80.782 133.688,83.624 133.988,86.617 134.239 C 89.609 134.490,92.058 134.774,92.058 134.871 C 92.058 135.181,89.476 137.262,87.804 138.300 C 80.645 142.743,80.468 142.821,78.174 142.567 C 70.534 141.721,66.711 139.920,60.163 134.082 C 59.199 133.223,58.006 132.250,57.511 131.918 C 54.763 130.079,56.112 123.715,59.537 122.356 C 60.934 121.802,61.511 122.004,63.251 123.656 M56.607 137.021 C 61.647 139.225,63.047 145.591,58.491 145.591 C 54.770 145.591,50.407 139.560,51.696 136.200 C 51.949 135.540,54.007 135.884,56.607 137.021 M46.714 141.330 C 47.297 141.595,48.423 142.516,49.216 143.376 C 50.008 144.236,51.191 145.470,51.845 146.118 C 53.212 147.474,53.238 147.577,52.445 148.498 C 51.298 149.832,47.420 149.471,43.060 147.624 C 41.293 146.876,40.293 145.076,40.664 143.308 C 41.080 141.322,44.344 140.255,46.714 141.330 M25.163 141.823 C 26.743 142.729,27.423 143.677,27.113 144.542 C 26.099 147.375,18.011 145.821,18.011 142.793 C 18.011 141.052,22.708 140.415,25.163 141.823 M35.772 144.340 C 36.688 145.256,36.288 145.591,34.280 145.591 C 33.040 145.591,32.585 145.116,32.939 144.191 C 33.155 143.628,35.166 143.734,35.772 144.340 " stroke="none" fill="#ffffff" fill-rule="evenodd"/></g></svg>