<svg xmlns="http://www.w3.org/2000/svg" xmlns:xlink="http://www.w3.org/1999/xlink" width="1000" height="350" viewBox="0 0 1000 350"><defs><clipPath id="b"><rect width="1000" height="350"/></clipPath></defs><g id="a" clip-path="url(#b)"><g transform="translate(0 -336)"><path d="M337.154-224.171q36.364,0,55.731,19.227t19.368,52.923a124.947,124.947,0,0,1-1.976,23.389L387.352,1H300l20.949-118.532a40.41,40.41,0,0,0,.4-6.343q0-11.5-6.917-17.839t-19.565-6.343q-14.229,0-23.715,7.73t-12.253,21.209L237.549,1H150.2l20.949-118.532a40.4,40.4,0,0,0,.4-6.343q0-11.5-6.917-17.839t-19.565-6.343q-14.624,0-24.308,8.127t-12.055,22.4v-1.982L87.747,1H0L39.13-222.586h87.747l-5.138,30.525a90.975,90.975,0,0,1,29.644-23.191q17.787-8.92,40.316-8.92,24.111,0,40.909,10.505t24.308,29.93a128.818,128.818,0,0,1,36.166-29.137A90.8,90.8,0,0,1,337.154-224.171Zm215.02,1.586L513.044,1H425.3l39.13-223.586Zm195.257-1.586q32.411,0,49.8,18.83t17.391,52.13a138.145,138.145,0,0,1-2.372,24.579L789.328,1H701.976l20.949-118.532a64.822,64.822,0,0,0,.79-8.325q0-12.289-6.917-19.227t-19.17-6.937q-14.625,0-24.506,9.316t-12.648,25.173v-1.982L639.526,1H551.779l39.13-223.586h87.747l-5.929,34.093a107.662,107.662,0,0,1,32.213-25.768Q723.715-224.171,747.431-224.171ZM939.921-88.989a16.723,16.723,0,0,0-.4,3.964q0,11.1,14.229,11.1H974.7L961.265,1h-33.2Q850.2,1,850.2-65.2a146.757,146.757,0,0,1,2.372-25.371l10.277-58.671H835.178l13.043-73.339h27.668l9.486-53.914h87.747l-9.486,53.914H1000l-13.043,73.339H950.593Z" transform="translate(0 685)" fill="#fff"/><g transform="translate(456.335 336)" fill="none"><path d="M57.5,0A57.5,57.5,0,1,1,0,57.5,57.5,57.5,0,0,1,57.5,0Z" stroke="none"/><path d="M 57.5 35 C 45.09345245361328 35 35 45.09345245361328 35 57.5 C 35 69.90655517578125 45.09345245361328 80 57.5 80 C 69.90655517578125 80 80 69.90655517578125 80 57.5 C 80 45.09345245361328 69.90655517578125 35 57.5 35 M 57.5 0 C 89.25634765625 0 115 25.74365234375 115 57.5 C 115 89.25634765625 89.25634765625 115 57.5 115 C 25.74365234375 115 0 89.25634765625 0 57.5 C 0 25.74365234375 25.74365234375 0 57.5 0 Z" stroke="none" fill="#38b2ac"/></g></g></g></svg>